<svg width="108" height="108" xmlns="http://www.w3.org/2000/svg" xmlns:xlink="http://www.w3.org/1999/xlink" xml:space="preserve" overflow="hidden"><defs><linearGradient x1="494.856" y1="453.6" x2="465.48" y2="424.224" gradientUnits="userSpaceOnUse" spreadMethod="pad" id="fill0"><stop offset="0" stop-color="#102784"/><stop offset="0.274053" stop-color="#1B44B1"/><stop offset="1" stop-color="#2764E7"/></linearGradient><linearGradient x1="519.48" y1="447.984" x2="463.32" y2="505.44" gradientUnits="userSpaceOnUse" spreadMethod="pad" id="fill1"><stop offset="0" stop-color="#0FAFFF"/><stop offset="0.177827" stop-color="#4894FE"/><stop offset="1" stop-color="#2764E7"/></linearGradient><linearGradient x1="478.008" y1="488.592" x2="486.648" y2="498.528" gradientUnits="userSpaceOnUse" spreadMethod="pad" id="fill2"><stop offset="0" stop-color="#2764E7" stop-opacity="0"/><stop offset="1" stop-color="#2052CB"/></linearGradient><linearGradient x1="530.28" y1="459.648" x2="490.536" y2="504.576" gradientUnits="userSpaceOnUse" spreadMethod="pad" id="fill3"><stop offset="0" stop-color="#6CE0FF"/><stop offset="0.211723" stop-color="#66C0FF"/><stop offset="1" stop-color="#58AAFE"/></linearGradient></defs><g transform="translate(-441 -414)"><g><g><path d="M498.752 428.976C501.22 428.976 503.57 430.031 505.21 431.876L524.8 453.915C530.203 459.993 526.824 469.641 518.81 471.021L471.96 479.088 477.835 472.447C480.152 469.827 480.148 465.889 477.824 463.275L460.118 443.356C455.165 437.784 459.121 428.976 466.576 428.976L498.752 428.976Z" fill="url(#fill0)"/><path d="M466.576 506.736C459.121 506.736 455.165 497.928 460.118 492.356L504.442 442.492C507.351 439.219 507.351 434.285 504.442 431.012L502.632 428.976 532.09 462.116C534.999 465.39 534.999 470.322 532.09 473.596L505.21 503.836C503.57 505.681 501.22 506.736 498.752 506.736L466.576 506.736Z" fill="url(#fill1)"/><path d="M466.576 506.736C459.121 506.736 455.165 497.928 460.118 492.356L504.442 442.492C507.351 439.219 507.351 434.285 504.442 431.012L502.632 428.976 532.09 462.116C534.999 465.39 534.999 470.322 532.09 473.596L505.21 503.836C503.57 505.681 501.22 506.736 498.752 506.736L466.576 506.736Z" fill="url(#fill2)"/><path d="M486.528 506.736C482.055 506.736 479.682 501.451 482.653 498.108L518.266 458.044C521.175 454.77 521.175 449.838 518.266 446.564L514.728 442.584 532.09 462.116C534.999 465.39 534.999 470.322 532.09 473.596L505.21 503.836C503.57 505.681 501.22 506.736 498.752 506.736L486.528 506.736Z" fill="url(#fill3)"/></g></g></g></svg>