<?xml version="1.0" encoding="UTF-8" standalone="no"?>
<svg
   xmlns:dc="http://purl.org/dc/elements/1.1/"
   xmlns:cc="http://creativecommons.org/ns#"
   xmlns:rdf="http://www.w3.org/1999/02/22-rdf-syntax-ns#"
   xmlns:svg="http://www.w3.org/2000/svg"
   xmlns="http://www.w3.org/2000/svg"
   xmlns:sodipodi="http://sodipodi.sourceforge.net/DTD/sodipodi-0.dtd"
   xmlns:inkscape="http://www.inkscape.org/namespaces/inkscape"
   viewBox="0 0 303.07 280.765"
   fill="none"
   version="1.1"
   id="svg61">
  <mask
     id="mask0_324_3825"
     maskUnits="userSpaceOnUse"
     x="104"
     y="115"
     width="304"
     height="282">
    <path
       d="m 267.131,115.617 c 40.734,0 77.416,17.354 103.054,45.068 l 0.016,-0.026 c 4.111,4.45 7.967,9.211 11.538,14.269 0.098,0.138 0.196,0.278 0.294,0.417 0.112,0.16 0.226,0.319 0.337,0.479 0.209,0.3 0.417,0.601 0.624,0.903 l -0.003,0.003 c 2.002,2.932 3.912,5.958 5.717,9.082 20.363,35.271 23.681,75.717 12.499,111.779 h 0.029 c -1.933,6.221 -4.322,12.366 -7.178,18.393 -0.113,0.24 -0.226,0.481 -0.34,0.72 h -0.004 c -1.537,3.196 -3.202,6.36 -5.006,9.483 -20.371,35.278 -53.736,58.37 -90.557,66.718 l 0.015,0.026 c -5.903,1.332 -11.947,2.292 -18.106,2.857 -0.122,0.011 -0.244,0.022 -0.366,0.033 -0.285,0.026 -0.571,0.053 -0.857,0.076 -0.328,0.028 -0.655,0.055 -0.983,0.081 l -0.003,-0.004 c -3.539,0.268 -7.114,0.409 -10.72,0.409 -40.733,0 -77.408,-17.354 -103.05,-45.066 l -0.012,0.023 c -3.183,-3.446 -6.213,-7.078 -9.077,-10.89 -0.233,-0.309 -0.466,-0.619 -0.696,-0.93 -0.069,-0.094 -0.138,-0.187 -0.206,-0.281 -0.963,-1.305 -1.905,-2.627 -2.823,-3.967 l 0.006,-0.011 c -0.374,-0.548 -0.744,-1.098 -1.111,-1.653 h -32.86 c -7.061,0 -12.837,-5.775 -12.837,-12.836 V 191.491 c 0,-7.061 5.776,-12.836 12.837,-12.836 h 32.679 c 20.586,-31.247 51.86,-51.788 86.127,-59.565 l -0.012,-0.022 c 4.568,-1.031 9.223,-1.838 13.949,-2.414 2.117,-0.261 4.241,-0.475 6.371,-0.64 l 0.007,0.01 c 3.535,-0.268 7.105,-0.407 10.708,-0.407 z"
       fill="#ffffff"
       id="path2" />
  </mask>
  <g
     mask="url(#mask0_324_3825)"
     id="g25"
     transform="translate(-104.465,-115.617)">
    <path
       d="m 267.131,333.626 c 42.872,0 77.626,-34.754 77.626,-77.626 0,-42.872 -34.754,-77.627 -77.626,-77.627 -42.872,0 -77.627,34.755 -77.627,77.627 0,42.872 34.755,77.626 77.627,77.626 z"
       fill="#731616"
       id="path5" />
    <path
       d="m 145.563,185.813 c -5.336,9.236 -9.491,18.823 -12.529,28.596 l 180.451,-0.74 -57.069,-97.656 c -44.602,3.46 -86.8,28.13 -110.853,69.8 z"
       fill="#f47d37"
       id="path7" />
    <path
       d="m 267.131,115.617 c -10.662,0 -21.051,1.198 -31.035,3.451 l 90.868,155.905 56.03,-98.246 c -25.286,-36.898 -67.748,-61.11 -115.863,-61.11 z"
       fill="#f7934e"
       id="path9" />
    <path
       d="m 388.708,185.813 c -5.336,-9.236 -11.56,-17.635 -18.507,-25.154 l -89.582,156.644 113.098,-0.599 c 19.317,-40.349 19.044,-89.23 -5.009,-130.891 z"
       fill="#bd3626"
       id="path11" />
    <path
       d="m 388.708,326.187 c 5.335,-9.236 9.491,-18.824 12.528,-28.596 l -180.45,0.739 57.068,97.648 c 44.602,-3.452 86.792,-28.121 110.854,-69.791 z"
       fill="#d73f27"
       id="path13" />
    <path
       d="m 267.131,396.382 c 10.662,0 21.051,-1.197 31.035,-3.451 l -90.868,-155.904 -56.03,98.246 c 25.294,36.898 67.748,61.109 115.863,61.109 z"
       fill="#e15426"
       id="path15" />
    <path
       d="m 145.563,326.187 c 5.335,9.235 11.56,17.634 18.506,25.153 l 89.583,-156.644 -113.108,0.599 c -19.307,40.35 -19.043,89.23 5.019,130.892 z"
       fill="#c35728"
       id="path17" />
    <g
       filter="url(#filter0_dd_324_3825)"
       id="g23">
      <path
         d="M 246.582,333.609 H 117.301 c -7.061,0 -12.836,-5.776 -12.836,-12.837 v -129.28 c 0,-7.061 5.775,-12.837 12.836,-12.837 h 129.281 c 7.061,0 12.836,5.776 12.836,12.837 v 129.28 c 0,7.061 -5.775,12.837 -12.836,12.837 z"
         fill="url(#paint0_linear_324_3825)"
         id="path19" />
      <path
         d="m 154.93,213.661 h 16.693 v 70.715 h 37.611 v 14.016 H 154.93 Z"
         fill="#ffffff"
         id="path21" />
    </g>
  </g>
  <defs
     id="defs59">
    <filter
       id="filter0_dd_324_3825"
       x="78.4646"
       y="166.655"
       width="206.95399"
       height="206.95399"
       filterUnits="userSpaceOnUse"
       color-interpolation-filters="sRGB">
      <feFlood
         flood-opacity="0"
         result="BackgroundImageFix"
         id="feFlood27" />
      <feColorMatrix
         in="SourceAlpha"
         type="matrix"
         values="0 0 0 0 0 0 0 0 0 0 0 0 0 0 0 0 0 0 127 0"
         result="hardAlpha"
         id="feColorMatrix29" />
      <feOffset
         dy="14"
         id="feOffset31" />
      <feGaussianBlur
         stdDeviation="13"
         id="feGaussianBlur33" />
      <feColorMatrix
         type="matrix"
         values="0 0 0 0 0 0 0 0 0 0 0 0 0 0 0 0 0 0 0.4 0"
         id="feColorMatrix35" />
      <feBlend
         mode="normal"
         in2="BackgroundImageFix"
         result="effect1_dropShadow_324_3825"
         id="feBlend37" />
      <feColorMatrix
         in="SourceAlpha"
         type="matrix"
         values="0 0 0 0 0 0 0 0 0 0 0 0 0 0 0 0 0 0 127 0"
         result="hardAlpha"
         id="feColorMatrix39" />
      <feOffset
         dy="4"
         id="feOffset41" />
      <feGaussianBlur
         stdDeviation="2"
         id="feGaussianBlur43" />
      <feColorMatrix
         type="matrix"
         values="0 0 0 0 0 0 0 0 0 0 0 0 0 0 0 0 0 0 0.25 0"
         id="feColorMatrix45" />
      <feBlend
         mode="normal"
         in2="effect1_dropShadow_324_3825"
         result="effect2_dropShadow_324_3825"
         id="feBlend47" />
      <feBlend
         mode="normal"
         in="SourceGraphic"
         in2="effect2_dropShadow_324_3825"
         result="shape"
         id="feBlend49" />
    </filter>
    <linearGradient
       id="paint0_linear_324_3825"
       x1="131.38499"
       y1="168.56799"
       x2="232.498"
       y2="343.69601"
       gradientUnits="userSpaceOnUse">
      <stop
         stop-color="#B72C3F"
         id="stop52" />
      <stop
         offset="0.5"
         stop-color="#B12334"
         id="stop54" />
      <stop
         offset="1"
         stop-color="#9D1623"
         id="stop56" />
    </linearGradient>
  </defs>
</svg>
