<svg width="117" height="117" xmlns="http://www.w3.org/2000/svg" xmlns:xlink="http://www.w3.org/1999/xlink" xml:space="preserve" overflow="hidden"><defs><linearGradient x1="782.069" y1="513.676" x2="807.555" y2="459.062" gradientUnits="userSpaceOnUse" spreadMethod="pad" id="fill0"><stop offset="0" stop-color="#6864F6"/><stop offset="0.528781" stop-color="#4A43CB"/><stop offset="1" stop-color="#5B2AB5"/></linearGradient><radialGradient cx="0" cy="0" r="1" gradientUnits="userSpaceOnUse" spreadMethod="pad" id="fill1" gradientTransform="matrix(4.7609 18.2971 -57.1309 18.3985 802.79 469.86)"><stop offset="0" stop-color="#312A9A"/><stop offset="1" stop-color="#4A43CB" stop-opacity="0"/></radialGradient><linearGradient x1="792.299" y1="479.08" x2="750.715" y2="487.043" gradientUnits="userSpaceOnUse" spreadMethod="pad" id="fill2"><stop offset="0" stop-color="#A3A3FF" stop-opacity="0"/><stop offset="1" stop-color="#A3A3FF" stop-opacity="0.6"/></linearGradient><radialGradient cx="0" cy="0" r="1" gradientUnits="userSpaceOnUse" spreadMethod="pad" id="fill3" gradientTransform="matrix(20.3755 14.0884 -7.15213 10.3439 761.159 474.536)"><stop offset="0" stop-color="#4A43CB"/><stop offset="1" stop-color="#6864F6" stop-opacity="0"/></radialGradient><linearGradient x1="806.501" y1="426.582" x2="747.317" y2="465.777" gradientUnits="userSpaceOnUse" spreadMethod="pad" id="fill4"><stop offset="0" stop-color="#AC80FF"/><stop offset="0.660101" stop-color="#7B7BFF"/><stop offset="1" stop-color="#5750E2"/></linearGradient><radialGradient cx="0" cy="0" r="1" gradientUnits="userSpaceOnUse" spreadMethod="pad" id="fill5" gradientTransform="matrix(-3.02966 -13.4821 42.2879 -11.7614 768.495 460.902)"><stop offset="0" stop-color="#1B44B1"/><stop offset="1" stop-color="#7B7BFF" stop-opacity="0"/></radialGradient><linearGradient x1="760.272" y1="439.235" x2="746.351" y2="467.506" gradientUnits="userSpaceOnUse" spreadMethod="pad" id="fill6"><stop offset="0" stop-color="#7B7BFF" stop-opacity="0"/><stop offset="1" stop-color="#2052CB"/></linearGradient><linearGradient x1="776.078" y1="451.358" x2="815.906" y2="438.624" gradientUnits="userSpaceOnUse" spreadMethod="pad" id="fill7"><stop offset="0" stop-color="#BABAFF" stop-opacity="0"/><stop offset="1" stop-color="#BABAFF" stop-opacity="0.6"/></linearGradient><radialGradient cx="0" cy="0" r="1" gradientUnits="userSpaceOnUse" spreadMethod="pad" id="fill8" gradientTransform="matrix(-13.6232 -18.9923 14.2857 -10.2472 800.901 461.488)"><stop offset="0" stop-color="#5750E2"/><stop offset="1" stop-color="#8F8FFF" stop-opacity="0"/></radialGradient><linearGradient x1="759.072" y1="486.468" x2="805.612" y2="449.162" gradientUnits="userSpaceOnUse" spreadMethod="pad" id="fill9"><stop offset="0" stop-color="#58AAFE"/><stop offset="0.28329" stop-color="#8F8FFF"/><stop offset="0.671554" stop-color="#A3A3FF"/><stop offset="1" stop-color="#CEB0FF"/></linearGradient></defs><g transform="translate(-726 -408)"><g><g><path d="M755.324 477.278 789.803 451.339C793.04 448.904 797.496 448.901 800.737 451.331L824.327 469.023C829.177 472.66 829.183 479.933 824.339 483.578L790.143 509.313C786.709 511.897 781.98 511.896 778.547 509.311L755.321 491.823C750.483 488.181 750.485 480.918 755.324 477.278Z" fill="url(#fill0)"/><path d="M755.324 477.278 789.803 451.339C793.04 448.904 797.496 448.901 800.737 451.331L824.327 469.023C829.177 472.66 829.183 479.933 824.339 483.578L790.143 509.313C786.709 511.897 781.98 511.896 778.547 509.311L755.321 491.823C750.483 488.181 750.485 480.918 755.324 477.278Z" fill="url(#fill1)"/><path d="M755.254 477.27 758.858 474.536 797.587 503.718 790.142 509.316C786.709 511.898 781.981 511.897 778.549 509.313L755.28 491.793C750.455 488.16 750.442 480.92 755.254 477.27Z" fill="url(#fill2)"/><path d="M755.254 477.27 758.858 474.536 797.587 503.718 790.142 509.316C786.709 511.898 781.981 511.897 778.549 509.313L755.28 491.793C750.455 488.16 750.442 480.92 755.254 477.27Z" fill="url(#fill3)"/><path d="M744.373 449.115 778.545 423.379C781.979 420.793 786.71 420.793 790.144 423.378L813.367 440.865C818.205 444.507 818.203 451.77 813.364 455.41L778.887 481.347C775.649 483.783 771.191 483.785 767.951 481.353L744.385 463.666C739.539 460.029 739.533 452.76 744.373 449.115Z" fill="url(#fill4)"/><path d="M744.373 449.115 778.545 423.379C781.979 420.793 786.71 420.793 790.144 423.378L813.367 440.865C818.205 444.507 818.203 451.77 813.364 455.41L778.887 481.347C775.649 483.783 771.191 483.785 767.951 481.353L744.385 463.666C739.539 460.029 739.533 452.76 744.373 449.115Z" fill="url(#fill5)"/><path d="M744.373 449.115 778.545 423.379C781.979 420.793 786.71 420.793 790.144 423.378L813.367 440.865C818.205 444.507 818.203 451.77 813.364 455.41L778.887 481.347C775.649 483.783 771.191 483.785 767.951 481.353L744.385 463.666C739.539 460.029 739.533 452.76 744.373 449.115Z" fill="url(#fill6)"/><path d="M771.145 429.024 778.539 423.415C781.973 420.81 786.721 420.801 790.165 423.394L813.408 440.895C818.233 444.528 818.246 451.768 813.434 455.418L809.831 458.152 771.145 429.024Z" fill="url(#fill7)"/><path d="M771.145 429.024 778.539 423.415C781.973 420.81 786.721 420.801 790.165 423.394L813.408 440.895C818.233 444.528 818.246 451.768 813.434 455.418L809.831 458.152 771.145 429.024Z" fill="url(#fill8)"/><path d="M779.81 482.879 816.19 468.187C819.023 467.043 822.247 467.464 824.691 469.297L800.779 451.363C797.358 448.797 792.844 448.207 788.878 449.809L752.498 464.501C749.667 465.645 746.444 465.224 744.001 463.394L767.909 481.325C771.331 483.891 775.844 484.48 779.81 482.879Z" fill="url(#fill9)"/></g></g></g></svg>