<svg width="89" height="88" xmlns="http://www.w3.org/2000/svg" xmlns:xlink="http://www.w3.org/1999/xlink" xml:space="preserve" overflow="hidden"><defs><linearGradient x1="14.6666" y1="55.4583" x2="25.6661" y2="4.58333" gradientUnits="userSpaceOnUse" spreadMethod="pad" id="fill0"><stop offset="0" stop-color="#520B56"/><stop offset="1" stop-color="#742774"/></linearGradient><radialGradient cx="0" cy="0" r="1" gradientUnits="userSpaceOnUse" spreadMethod="pad" id="fill1" gradientTransform="matrix(-33.4583 49.9586 -15.4732 -10.3627 28.8749 7.33336)"><stop offset="0" stop-color="#4C1E4C" stop-opacity="0"/><stop offset="0.512391" stop-color="#4C1E4C" stop-opacity="0"/><stop offset="1" stop-color="#4C1E4C"/></radialGradient><linearGradient x1="10.9999" y1="65.0833" x2="54.5417" y2="38.0417" gradientUnits="userSpaceOnUse" spreadMethod="pad" id="fill2"><stop offset="0" stop-color="#D467B9"/><stop offset="0.308079" stop-color="#982F90"/><stop offset="1" stop-color="#742774"/></linearGradient><linearGradient x1="40.3333" y1="49.0414" x2="61.875" y2="46.7497" gradientUnits="userSpaceOnUse" spreadMethod="pad" id="fill3"><stop offset="0" stop-color="#742774" stop-opacity="0"/><stop offset="1" stop-color="#520B56"/></linearGradient><linearGradient x1="39.4167" y1="26.5833" x2="75.625" y2="51.3333" gradientUnits="userSpaceOnUse" spreadMethod="pad" id="fill4"><stop offset="0" stop-color="#E9A1CB"/><stop offset="0.40829" stop-color="#D467B9"/><stop offset="1" stop-color="#BB35A4"/></linearGradient><linearGradient x1="61.875" y1="21.5417" x2="74.25" y2="24.2917" gradientUnits="userSpaceOnUse" spreadMethod="pad" id="fill5"><stop offset="0" stop-color="#E48CC7" stop-opacity="0"/><stop offset="1" stop-color="#BB35A4"/></linearGradient><linearGradient x1="81.8183" y1="70.7318" x2="70.0804" y2="37.935" gradientUnits="userSpaceOnUse" spreadMethod="pad" id="fill6"><stop offset="0" stop-color="#E48CC7"/><stop offset="1" stop-color="#F7C4E2"/></linearGradient><linearGradient x1="68.9333" y1="71.115" x2="50.2966" y2="29.4046" gradientUnits="userSpaceOnUse" spreadMethod="pad" id="fill7"><stop offset="0" stop-color="#E48CC7" stop-opacity="0"/><stop offset="0.67724" stop-color="#D467B9" stop-opacity="0.5"/><stop offset="1" stop-color="#BB35A4"/></linearGradient></defs><g transform="translate(-162 -424)"><path d="M40.4757 8.95764 57.6816 39.068C59.4278 42.1242 59.4278 45.8758 57.6816 48.932L40.4757 79.0423C35.5489 87.6639 23.1174 87.6639 18.1908 79.0423L2.06479 50.8218C-0.350753 46.5948-0.350747 41.4052 2.06479 37.1782L18.1908 8.95764C23.1174 0.336007 35.5489 0.336019 40.4757 8.95764Z" fill="url(#fill0)" transform="matrix(1.01136 0 0 1 162 424)"/><path d="M40.4757 8.95764 57.6816 39.068C59.4278 42.1242 59.4278 45.8758 57.6816 48.932L40.4757 79.0423C35.5489 87.6639 23.1174 87.6639 18.1908 79.0423L2.06479 50.8218C-0.350753 46.5948-0.350747 41.4052 2.06479 37.1782L18.1908 8.95764C23.1174 0.336007 35.5489 0.336019 40.4757 8.95764Z" fill="url(#fill1)" transform="matrix(1.01136 0 0 1 162 424)"/><path d="M60.5 44 40.4757 79.0423C35.5489 87.6639 23.1174 87.6639 18.1908 79.0423L1.83322 50.4167C6.69689 58.9279 18.9696 58.9279 23.8332 50.4167L44 15.125 60.5 44Z" fill="url(#fill2)" transform="matrix(1.01136 0 0 1 162 424)"/><path d="M60.5 44 40.4757 79.0423C35.5489 87.6639 23.1174 87.6639 18.1908 79.0423L1.83322 50.4167C6.69689 58.9279 18.9696 58.9279 23.8332 50.4167L44 15.125 60.5 44Z" fill="url(#fill3)" transform="matrix(1.01136 0 0 1 162 424)"/><path d="M50.3669 26.2675 75.1667 69.6667 85.6057 51.3981C88.2252 46.8139 88.2252 41.1861 85.6057 36.6019L69.8091 8.95764C64.8823 0.336007 52.4507 0.336001 47.524 8.95764L37.6328 26.2675C40.4479 21.3408 47.5518 21.3408 50.3669 26.2675Z" fill="url(#fill4)" transform="matrix(1.01136 0 0 1 162 424)"/><path d="M50.3669 26.2675 75.1667 69.6667 85.6057 51.3981C88.2252 46.8139 88.2252 41.1861 85.6057 36.6019L69.8091 8.95764C64.8823 0.336007 52.4507 0.336001 47.524 8.95764L37.6328 26.2675C40.4479 21.3408 47.5518 21.3408 50.3669 26.2675Z" fill="url(#fill5)" transform="matrix(1.01136 0 0 1 162 424)"/><path d="M73.0874 21.9717 44 72.875 47.524 79.0423C52.4507 87.6639 64.8823 87.6639 69.8091 79.0423L86.1948 50.3672C88.4495 46.4218 88.4495 41.5782 86.1948 37.6328L73.0874 14.695C74.3759 16.9495 74.3759 19.7172 73.0874 21.9717Z" fill="url(#fill6)" transform="matrix(1.01136 0 0 1 162 424)"/><path d="M47.524 79.0423 44 72.875 60.5 44 75.1667 69.6667 69.8091 79.0423C64.8823 87.6639 52.4507 87.6639 47.524 79.0423Z" fill="url(#fill7)" transform="matrix(1.01136 0 0 1 162 424)"/></g></svg>