<svg width="22" height="20" viewBox="0 0 22 20" fill="none"
    xmlns="http://www.w3.org/2000/svg" class="___1yk74si fq4mcun frvgh55 f22iagw f122n59 f4d9j23">
    <path d="M11.0918 1.87834C12.4995 -0.584472 16.0513 -0.584424 17.459 1.87834L21.0605 8.18108C21.7044 9.30823 21.7045 10.6926 21.0605 11.8197L17.459 18.1215C16.0513 20.5843 12.4995 20.5843 11.0918 18.1215L10.999 17.9604L10.9082 18.1215C9.5005 20.5843 5.94868 20.5843 4.541 18.1215L0.931626 11.8051L0.934556 11.8022C0.320298 10.6336 0.340966 9.22919 0.999009 8.07756L4.541 1.87932C5.79077 -0.307779 8.7295 -0.551679 10.3584 1.14495L9.5576 2.54534C8.69617 1.16923 6.6602 1.19474 5.84374 2.62346L2.30174 8.8217C1.89773 9.52879 1.88512 10.3918 2.26366 11.1088C3.08038 12.4568 5.05569 12.4411 5.84471 11.061L11.0918 1.87834ZM11.7959 6.45549C11.466 5.8786 10.6652 5.84248 10.2764 6.34709L10.208 6.44768L7.14745 11.8051C6.39192 13.1269 5.00376 13.7209 3.6787 13.5893L5.84374 17.3774C6.67563 18.8322 8.77359 18.8322 9.60545 17.3774L13.8203 9.99944L11.7959 6.45549ZM11.8633 16.4487L12.3945 17.3774C13.2264 18.8323 15.3243 18.8322 16.1562 17.3774L17.0957 15.7319L14.6846 11.5112L11.8633 16.4487ZM15.5478 9.99944L17.9599 14.2201L19.7578 11.0756C20.1384 10.4096 20.1382 9.59126 19.7578 8.92522L17.9599 5.77873L15.5478 9.99944ZM16.1562 2.62248C15.3243 1.16772 13.2264 1.16767 12.3945 2.62248L11.3135 4.51506C12.0206 4.60583 12.6933 5.00405 13.0976 5.71135L14.6846 8.4887L16.8369 4.72307C16.9977 4.44152 16.9975 4.09551 16.8369 3.81389L16.1562 2.62248Z" fill="currentColor"></path>
</svg>